HIERARCHY
ROOT Hips
{
  OFFSET 0.000000 0.000000 0.000000
  CHANNELS 6 Xposition Yposition Zposition Zrotation Yrotation Xrotation
  JOINT Spine
  {
    OFFSET -0.000883 2.120903 -0.028059
    CHANNELS 3 Zrotation Yrotation Xrotation
    JOINT Spine1
    {
      OFFSET -0.002865 2.096658 0.129739
      CHANNELS 3 Zrotation Yrotation Xrotation
      JOINT Spine2
      {
        OFFSET -0.000072 2.101496 0.140380
        CHANNELS 3 Zrotation Yrotation Xrotation
        JOINT Neck
        {
          OFFSET 0.073278 1.835262 0.072900
          CHANNELS 3 Zrotation Yrotation Xrotation
          JOINT Head
          {
            OFFSET -0.033980 1.851628 -0.175733
            CHANNELS 3 Zrotation Yrotation Xrotation
            End Site
            {
              OFFSET 0 0 0
            }
          }
        }
        JOINT LeftShoulder
        {
          OFFSET 3.021134 1.180177 0.406022
          CHANNELS 3 Zrotation Yrotation Xrotation
          JOINT LeftArm
          {
            OFFSET 4.585380 -0.000000 -0.000000
            CHANNELS 3 Zrotation Yrotation Xrotation
            JOINT LeftForeArm
            {
              OFFSET 2.689350 -0.000000 -0.000000
              CHANNELS 3 Zrotation Yrotation Xrotation
              JOINT LeftHand
              {
                OFFSET 0.585058 -0.000000 -0.000000
                CHANNELS 3 Zrotation Yrotation Xrotation
                JOINT LeftHandIndex1
                {
                  OFFSET 0.471689 -0.000000 -0.000000
                  CHANNELS 3 Zrotation Yrotation Xrotation
                  End Site
                  {
                    OFFSET 0 0 0
                  }
                }
              }
            }
          }
        }
        JOINT RightShoulder
        {
          OFFSET -2.950738 1.188427 0.314298
          CHANNELS 3 Zrotation Yrotation Xrotation
          JOINT RightArm
          {
            OFFSET -4.474500 -0.000000 -0.000000
            CHANNELS 3 Zrotation Yrotation Xrotation
            JOINT RightForeArm
            {
              OFFSET -2.938960 -0.000000 -0.000000
              CHANNELS 3 Zrotation Yrotation Xrotation
              JOINT RightHand
              {
                OFFSET -0.405092 -0.000000 -0.000000
                CHANNELS 3 Zrotation Yrotation Xrotation
                JOINT RightHandIndex1
                {
                  OFFSET -0.326596 -0.000000 -0.000000
                  CHANNELS 3 Zrotation Yrotation Xrotation
                  End Site
                  {
                    OFFSET 0 0 0
                  }
                }
              }
            }
          }
        }
      }
    }
  }
  JOINT LeftUpLeg
  {
    OFFSET 2.251771 -6.186694 0.000000
    CHANNELS 3 Zrotation Yrotation Xrotation
    JOINT LeftLeg
    {
      OFFSET 2.266012 -6.225823 0.000000
      CHANNELS 3 Zrotation Yrotation Xrotation
      JOINT LeftFoot
      {
        OFFSET 0.237014 -0.651191 2.158476
        CHANNELS 3 Zrotation Yrotation Xrotation
        JOINT LeftToeBase
        {
          OFFSET 0.000000 -0.000000 1.129490
          CHANNELS 3 Zrotation Yrotation Xrotation
          End Site
          {
            OFFSET 0 0 0
          }
        }
      }
    }
  }
  JOINT RightUpLeg
  {
    OFFSET -2.280357 -6.265234 0.000000
    CHANNELS 3 Zrotation Yrotation Xrotation
    JOINT RightLeg
    {
      OFFSET -2.254897 -6.195283 0.000000
      CHANNELS 3 Zrotation Yrotation Xrotation
      JOINT RightFoot
      {
        OFFSET -0.283752 -0.779600 2.231370
        CHANNELS 3 Zrotation Yrotation Xrotation
        JOINT RightToeBase
        {
          OFFSET -0.000000 -0.000000 1.178990
          CHANNELS 3 Zrotation Yrotation Xrotation
          End Site
          {
            OFFSET 0 0 0
          }
        }
      }
    }
  }
}
MOTION
Frames: 6
Frame Time: 0.00833333
-1.298270 12.623000 5.503620 -5.662670 -23.472100 16.627000 3.123000 11.083800 -21.184600 0.000000 0.000000 82.090400 -4.951560 0.000000 -25.020600 0.000000 0.000000 -41.912800 19.426200 11.602200 -73.430400 0.000000 0.000000 74.778100 9.789320 0.000000 -18.809300 0.000000 0.000000 -0.426531 -4.047890 -4.304900 12.087900 1.314000 -6.241310 -1.599480 4.810110 -2.820900 -7.895870 25.050700 13.087100 -0.003958 -5.106720 9.640740 10.417100 -0.000000 0.000000 0.000000 64.279900 -7.896100 33.085300 0.000000 0.000000 73.902700 31.560100 0.000000 -12.065900 0.000000 0.000000 7.125020 -0.000000 0.000000 0.000000 -79.064900 30.526400 19.271600 0.000000 0.000000 133.501000 -4.154230 0.000000 -18.444200 0.000000 0.000000 7.125020
-1.286350 12.584600 5.490180 -6.021380 -24.027600 16.641300 3.560890 11.638000 -21.111300 0.000000 0.000000 82.765000 -5.289650 0.000000 -24.897200 0.000000 0.000000 -41.829200 19.830700 11.907100 -73.554100 0.000000 0.000000 74.905300 10.256200 0.000000 -18.679000 0.000000 0.000000 -0.128206 -4.416220 -4.729840 12.447800 1.497870 -6.860470 -1.492140 5.341020 -3.104550 -7.855090 25.274100 13.431300 0.533615 -5.154340 9.945130 10.487700 -0.000000 0.000000 0.000000 64.014400 -5.277510 34.918300 0.000000 0.000000 66.784000 31.316000 0.000000 -11.464400 0.000000 0.000000 7.125020 -0.000000 0.000000 0.000000 -78.783800 30.813200 19.523000 0.000000 0.000000 133.241000 -4.260620 0.000000 -18.519200 0.000000 0.000000 7.125020
-1.273770 12.547800 5.476510 -6.395920 -24.417900 16.668400 4.056890 12.106000 -21.107600 0.000000 0.000000 83.427500 -5.649410 0.000000 -24.810400 0.000000 0.000000 -41.782800 20.274200 12.085400 -73.648700 0.000000 0.000000 75.032900 10.670400 0.000000 -18.561100 0.000000 0.000000 0.172634 -4.659800 -5.143300 12.852500 1.690270 -7.448380 -1.394600 5.814950 -3.376680 -7.855260 25.380500 13.738000 0.944004 -5.171100 10.203600 10.564300 0.000000 0.000000 0.000000 64.089300 -2.584620 36.487300 0.000000 0.000000 60.358300 30.854900 0.000000 -10.895100 0.000000 0.000000 7.125020 0.000000 0.000000 0.000000 -78.515800 31.094600 19.794300 0.000000 0.000000 133.032000 -4.384990 0.000000 -18.542000 0.000000 0.000000 7.125020
-1.260250 12.512800 5.463100 -6.789450 -24.674200 16.724600 4.601440 12.515300 -21.167000 0.000000 0.000000 84.069500 -6.021750 0.000000 -24.765700 0.000000 0.000000 -41.784000 20.754700 12.156100 -73.734600 0.000000 0.000000 75.155300 11.045100 0.000000 -18.454700 0.000000 0.000000 0.467852 -4.764150 -5.533490 13.270500 1.881940 -7.984940 -1.303030 6.208510 -3.628520 -7.884340 25.396600 14.006600 1.228800 -5.171960 10.416600 10.641900 -0.000000 -0.000000 0.000000 64.518400 0.174664 37.738900 0.000000 0.000000 55.039700 30.212900 0.000000 -10.363400 0.000000 0.000000 7.125020 -0.000000 -0.000000 0.000000 -78.264800 31.378600 20.072600 0.000000 0.000000 132.893000 -4.495600 0.000000 -18.498400 0.000000 0.000000 7.125020
-1.245720 12.479700 5.450580 -7.189020 -24.837400 16.814000 5.166110 12.891500 -21.271900 0.000000 0.000000 84.677100 -6.409520 0.000000 -24.771500 0.000000 0.000000 -41.797900 21.252200 12.144300 -73.827500 0.000000 0.000000 75.272000 11.378600 0.000000 -18.364900 0.000000 0.000000 0.716483 -4.721590 -5.873140 13.653900 2.051780 -8.429990 -1.201450 6.481430 -3.843000 -7.912430 25.343500 14.224600 1.380380 -5.173020 10.575500 10.707500 -0.000000 -0.000000 0.000000 65.198400 2.865330 38.688800 0.000000 0.000000 51.145000 29.548600 0.000000 -9.924650 0.000000 0.000000 7.125020 -0.000000 -0.000000 0.000000 -78.016100 31.625200 20.370200 0.000000 0.000000 132.826000 -4.579930 0.000000 -18.405400 0.000000 0.000000 7.125020
-1.230360 12.448900 5.439320 -7.574770 -24.938600 16.937700 5.719090 13.252100 -21.411400 0.000000 0.000000 85.237000 -6.804760 0.000000 -24.822900 0.000000 0.000000 -41.838100 21.739300 12.071900 -73.944900 0.000000 0.000000 75.386000 11.674400 0.000000 -18.295300 0.000000 0.000000 0.905616 -4.544500 -6.143230 13.985100 2.189980 -8.759170 -1.099020 6.623840 -4.007180 -7.947560 25.248000 14.375400 1.423330 -5.194030 10.675700 10.753700 -0.000000 0.000000 0.000000 65.991100 5.315440 39.325500 0.000000 0.000000 48.830400 29.054200 0.000000 -9.649580 0.000000 0.000000 7.125020 -0.000000 0.000000 0.000000 -77.776900 31.829400 20.650000 0.000000 0.000000 132.840000 -4.617380 0.000000 -18.261800 0.000000 0.000000 7.125020
